<svg width="109" height="68" viewBox="0 0 109 68" fill="none" xmlns="http://www.w3.org/2000/svg">
<g clip-path="url(#clip0)">
<path d="M9.75693 1.91415C9.23082 1.53132 8.5134 1.3399 7.70033 1.3399C7.36553 1.3399 7.03074 1.38776 6.69594 1.43561C6.36114 1.48346 6.07418 1.62702 5.83504 1.77058C5.5959 1.91415 5.35676 2.15341 5.21327 2.39268C5.06979 2.6798 4.97413 2.96692 4.97413 3.39761C4.97413 3.78044 5.06979 4.06756 5.30893 4.30683C5.54807 4.54609 5.83504 4.73751 6.16983 4.88107C6.55246 5.02463 6.93508 5.16819 7.41336 5.2639C7.89164 5.35961 8.32209 5.45531 8.8482 5.59887C9.32648 5.69458 9.80476 5.83814 10.283 5.9817C10.7613 6.12526 11.1439 6.31668 11.5266 6.6038C11.9092 6.84307 12.1962 7.17804 12.3875 7.56087C12.6266 7.9437 12.7223 8.47009 12.7223 9.04434C12.7223 9.66643 12.5788 10.2407 12.2918 10.6714C12.0048 11.1499 11.6222 11.4849 11.1918 11.772C10.7613 12.0591 10.2352 12.2505 9.66128 12.3941C9.08734 12.5377 8.56123 12.5855 7.9873 12.5855C7.3177 12.5855 6.64811 12.4898 6.07418 12.3462C5.45241 12.1548 4.9263 11.9156 4.49585 11.5806C4.01757 11.2456 3.68278 10.8149 3.39581 10.2407C3.10884 9.71429 3.01318 9.09219 3.01318 8.32653H4.54368C4.54368 8.85292 4.63934 9.2836 4.83065 9.61858C5.02196 10.0014 5.30893 10.2885 5.5959 10.5278C5.93069 10.7671 6.31332 10.9585 6.69594 11.0542C7.12639 11.1499 7.55684 11.2456 8.03512 11.2456C8.41775 11.2456 8.75254 11.1977 9.13517 11.1499C9.51779 11.102 9.85259 10.9585 10.1396 10.8149C10.4265 10.6714 10.6657 10.4321 10.857 10.145C11.0483 9.85785 11.1439 9.52287 11.1439 9.04434C11.1439 8.61365 11.0483 8.27868 10.8091 8.03941C10.57 7.80014 10.283 7.56087 9.94824 7.41731C9.56562 7.27375 9.183 7.13019 8.70472 7.03448C8.22644 6.93878 7.79598 6.84307 7.26988 6.69951C6.7916 6.6038 6.31332 6.46024 5.83504 6.31668C5.35676 6.17312 4.97413 5.9817 4.59151 5.74244C4.20888 5.50317 3.92192 5.21605 3.7306 4.83322C3.49146 4.54609 3.39581 4.06756 3.39581 3.54117C3.39581 2.91907 3.53929 2.39268 3.77843 1.962C4.01757 1.53132 4.35237 1.14849 4.78282 0.861365C5.21327 0.574243 5.64372 0.382829 6.16983 0.239268C6.69594 0.0478536 7.22205 0 7.79598 0C8.41775 0 8.99168 0.0957073 9.51779 0.239268C10.0439 0.382829 10.5222 0.574244 10.9048 0.909219C11.2874 1.24419 11.6222 1.62702 11.8614 2.10556C12.1005 2.5841 12.1962 3.15834 12.244 3.82829H10.7135C10.6178 2.96692 10.283 2.34483 9.75693 1.91415Z" fill="black"/>
<path d="M21.8574 1.62701V0.287109H31.5187V1.62701H27.5011V12.3462H25.875V1.62701H21.8574Z" fill="black"/>
<path d="M49.6931 11.4849C48.88 12.2505 47.6843 12.6333 46.2017 12.6333C44.6233 12.6333 43.4276 12.2505 42.5667 11.5327C41.7058 10.8149 41.2754 9.61857 41.2754 7.99154V0.287109H42.9015V7.99154C42.9015 9.09218 43.1885 9.90569 43.7624 10.4321C44.3364 11.0063 45.1495 11.2456 46.2495 11.2456C47.2539 11.2456 48.067 10.9585 48.5931 10.4321C49.1192 9.85783 49.4061 9.04432 49.4061 7.99154V0.287109H51.0323V7.99154C50.8888 9.52286 50.5062 10.7192 49.6931 11.4849Z" fill="black"/>
<path d="M66.0507 0.287109C67.916 0.287109 69.3508 0.765646 70.3552 1.72272C71.3596 2.67979 71.8379 4.1154 71.8379 6.02954C71.8379 7.03447 71.7422 7.94369 71.5031 8.70935C71.2639 9.47501 70.9291 10.145 70.4509 10.6713C69.9726 11.1977 69.3986 11.6284 68.6334 11.9155C67.916 12.2027 67.0551 12.3462 66.0507 12.3462H61.8896V0.287109H66.0507ZM66.1942 11.0063C66.3855 11.0063 66.5768 11.0063 66.8638 10.9585C67.1507 10.9106 67.4377 10.8628 67.7247 10.7671C68.0116 10.6713 68.3464 10.5278 68.6334 10.2885C68.9204 10.0971 69.2073 9.80998 69.4465 9.47501C69.6856 9.14003 69.8769 8.70935 70.0204 8.18296C70.1639 7.65657 70.2595 7.03447 70.2595 6.26881C70.2595 5.55101 70.2117 4.88106 70.0682 4.35467C69.9248 3.78042 69.6856 3.30189 69.3986 2.91906C69.0638 2.53623 68.6812 2.20125 68.1551 2.00984C67.629 1.81843 67.0072 1.67486 66.2898 1.67486H63.5636V11.0063H66.1942Z" fill="black"/>
<path d="M83.9382 0.287109V12.3462H82.312V0.287109H83.9382Z" fill="black"/>
<path d="M94.7952 3.97185C95.0344 3.20619 95.417 2.53624 95.8953 1.962C96.3735 1.38775 96.9953 0.909217 97.7127 0.574241C98.4302 0.239266 99.2911 0.0478516 100.248 0.0478516C101.204 0.0478516 102.065 0.239266 102.782 0.574241C103.5 0.909217 104.122 1.38775 104.6 1.962C105.078 2.53624 105.461 3.20619 105.7 3.97185C105.939 4.73751 106.083 5.50316 106.083 6.36453C106.083 7.17804 105.939 7.99155 105.7 8.75721C105.461 9.52287 105.078 10.1928 104.6 10.7671C104.122 11.3413 103.5 11.8198 102.782 12.1548C102.065 12.4898 101.204 12.6812 100.248 12.6812C99.2911 12.6812 98.4302 12.4898 97.7127 12.1548C96.9953 11.8198 96.3735 11.3413 95.8953 10.7671C95.417 10.1928 95.0344 9.52287 94.7952 8.75721C94.5561 7.99155 94.4126 7.2259 94.4126 6.36453C94.4126 5.50316 94.5561 4.68965 94.7952 3.97185ZM96.2779 8.13511C96.4214 8.70936 96.6605 9.23575 97.0431 9.71428C97.4258 10.1928 97.8084 10.5756 98.3345 10.8628C98.8606 11.1499 99.4824 11.2935 100.248 11.2935C101.013 11.2935 101.635 11.1499 102.161 10.8628C102.687 10.5756 103.117 10.1928 103.452 9.71428C103.787 9.23575 104.026 8.70936 104.217 8.13511C104.361 7.56087 104.456 6.93877 104.456 6.31668C104.456 5.69458 104.361 5.12034 104.217 4.49824C104.074 3.92399 103.835 3.39761 103.452 2.91907C103.117 2.44053 102.687 2.0577 102.161 1.77058C101.635 1.48346 101.013 1.3399 100.248 1.3399C99.4824 1.3399 98.8606 1.48346 98.3345 1.77058C97.8084 2.0577 97.3779 2.44053 97.0431 2.91907C96.7083 3.39761 96.4692 3.92399 96.2779 4.49824C96.1344 5.07248 96.0388 5.69458 96.0388 6.31668C96.0388 6.93877 96.1344 7.51302 96.2779 8.13511Z" fill="black"/>
<path d="M15.4007 42.3982C16.4529 42.3025 17.4095 42.1111 18.2704 41.7283C19.1791 41.3454 19.8965 40.8191 20.4705 40.1012C21.0444 39.3834 21.3314 38.4264 21.3314 37.23C21.3314 35.4594 20.7574 34.0717 19.5617 33.1146C18.366 32.1575 16.979 31.679 15.4485 31.679C13.2963 31.679 11.6701 32.3968 10.6179 33.7846C9.51787 35.1723 8.99176 36.9908 9.03959 39.0963H1.00448C1.10014 36.9429 1.48276 34.9809 2.15236 33.2103C2.86978 31.4876 3.82634 29.9563 5.06986 28.7121C6.31339 27.42 7.79606 26.463 9.56569 25.7452C11.2875 25.0274 13.2485 24.6924 15.4007 24.6924C17.0747 24.6924 18.7487 24.9317 20.4227 25.458C22.0966 25.9366 23.5793 26.7022 24.9185 27.7072C26.2577 28.7121 27.3099 29.9084 28.1708 31.344C28.9839 32.7796 29.4143 34.4067 29.4143 36.273C29.4143 38.2828 28.936 40.1012 27.9795 41.6326C27.0229 43.1639 25.5402 44.2167 23.6271 44.7909V44.8866C25.9229 45.413 27.7403 46.5136 29.0317 48.2364C30.323 49.9591 30.9926 51.9689 30.9926 54.3616C30.9926 56.5629 30.5622 58.477 29.7013 60.1998C28.8404 61.9225 27.6925 63.3581 26.2577 64.5066C24.8228 65.6551 23.1967 66.5164 21.3314 67.1385C19.4661 67.7128 17.5051 68.0478 15.4964 68.0478C13.1528 68.0478 11.0005 67.7128 9.08741 67.0428C7.17429 66.3729 5.54814 65.368 4.16113 64.0759C2.82195 62.7839 1.76973 61.2047 1.05231 59.3384C0.334892 57.4721 -0.047732 55.3187 9.59719e-05 52.926H8.0352C8.08303 54.0266 8.27434 55.0794 8.56131 56.1322C8.8961 57.1371 9.32655 57.9985 9.94832 58.7642C10.5223 59.482 11.2875 60.1041 12.1962 60.5347C13.105 60.9654 14.1572 61.2047 15.4007 61.2047C17.3138 61.2047 18.8922 60.6304 20.2313 59.4341C21.5227 58.2856 22.1923 56.6586 22.1923 54.6487C22.1923 53.0696 21.9053 51.8732 21.2836 51.0119C20.6618 50.1984 19.8965 49.5763 18.94 49.1934C17.9834 48.8106 16.9312 48.6192 15.8312 48.5235C14.6833 48.4756 13.6311 48.4278 12.5789 48.4278V42.3982C13.3919 42.4461 14.3963 42.4461 15.4007 42.3982Z" fill="black"/>
<path d="M80.5903 31.1526C81.4034 29.717 82.5034 28.5207 83.8426 27.5636C85.1818 26.6065 86.6645 25.8887 88.3384 25.4102C90.0124 24.9317 91.6864 24.6924 93.4082 24.6924C95.9909 24.6924 98.191 25.0752 99.9607 25.8887C101.73 26.7022 103.165 27.6593 104.265 28.7599C105.365 29.9084 106.13 31.1048 106.609 32.3968C107.087 33.6889 107.326 34.8373 107.326 35.8901C107.326 37.9478 106.8 39.7663 105.796 41.2976C104.791 42.8289 103.261 43.9774 101.252 44.6473V44.743C103.739 45.3173 105.652 46.4658 107.039 48.2842C108.378 50.1027 109.048 52.3039 109.048 54.9359C109.048 57.1371 108.618 59.0991 107.709 60.7262C106.8 62.3532 105.652 63.6931 104.17 64.7937C102.687 65.8465 101.013 66.66 99.1476 67.1864C97.2823 67.7128 95.3692 67.9999 93.456 67.9999C91.4473 67.9999 89.4863 67.7606 87.5732 67.2342C85.7079 66.7557 83.9861 65.9422 82.5034 64.8894C81.0208 63.8366 79.8251 62.4489 78.9163 60.8219C78.0076 59.1948 77.5771 57.2328 77.5771 54.9837C77.5771 52.3039 78.2467 50.1026 79.6338 48.3321C81.0208 46.5615 82.9339 45.3651 85.4209 44.743V44.6473C83.4122 44.0731 81.8817 43.0203 80.8295 41.489C79.7772 39.9577 79.299 38.1392 79.299 36.0815C79.3468 34.2153 79.7294 32.5404 80.5903 31.1526ZM86.6645 57.52C87.0471 58.3813 87.5732 59.147 88.2428 59.7691C88.9124 60.3912 89.6776 60.8697 90.5864 61.2047C91.4951 61.5397 92.4517 61.7311 93.456 61.7311C94.5083 61.7311 95.417 61.5397 96.2779 61.2047C97.1388 60.8697 97.9041 60.3912 98.5258 59.7691C99.1954 59.147 99.6737 58.4292 100.056 57.52C100.391 56.6586 100.582 55.7015 100.582 54.6487C100.582 53.6438 100.391 52.7346 100.008 51.9211C99.6259 51.1076 99.0997 50.3898 98.478 49.8155C97.8562 49.2413 97.091 48.7627 96.2301 48.4278C95.3692 48.0928 94.4604 47.9492 93.456 47.9492C91.3994 47.9492 89.6298 48.5235 88.2428 49.6241C86.808 50.7726 86.0905 52.3996 86.0905 54.553C86.0427 55.6537 86.234 56.6107 86.6645 57.52ZM88.9124 40.9148C90.2037 41.824 91.6864 42.3025 93.3604 42.3025C95.13 42.3025 96.6127 41.824 97.8084 40.9148C99.0041 40.0055 99.578 38.6178 99.578 36.8472C99.578 36.273 99.4824 35.6987 99.3389 35.0288C99.1954 34.3588 98.8606 33.7367 98.4302 33.1625C97.9519 32.5882 97.3301 32.0618 96.517 31.679C95.704 31.2962 94.6517 31.1048 93.3126 31.1048C92.4995 31.1048 91.6864 31.2483 90.9212 31.4876C90.1559 31.7269 89.4863 32.1097 88.8646 32.5882C88.2906 33.0668 87.8123 33.641 87.4775 34.3588C87.1427 35.0766 86.9514 35.8901 86.9514 36.8472C86.9993 38.6178 87.621 40.0055 88.9124 40.9148Z" fill="black"/>
<path d="M58.7327 25.5537H50.2671V67.2342H58.7327V25.5537Z" fill="black"/>
</g>
<defs>
<clipPath id="clip0">
<rect width="109" height="68" fill="white"/>
</clipPath>
</defs>
</svg>
