<svg width="141" height="132" viewBox="0 0 141 132" fill="none" xmlns="http://www.w3.org/2000/svg">
<path d="M0.904663 15.6231L5.70252 6.55392L15.8579 1.88152L25.8872 6.5503L30.5729 15.6231L25.8862 24.7335L15.8579 29.4202L5.70349 24.7298L0.904663 15.6231Z" stroke="white" stroke-width="1.6" stroke-linejoin="bevel"/>
<path d="M56.2533 65.546L61.0512 56.4768L71.2065 51.8044L81.2358 56.4732L85.9215 65.5459L81.2348 74.6563L71.2065 79.343L61.0521 74.6527L56.2533 65.546Z" stroke="white" stroke-width="1.6" stroke-linejoin="bevel"/>
<path d="M56.2533 116.554L61.0512 107.485L71.2065 102.812L81.2358 107.481L85.9215 116.554L81.2348 125.664L71.2065 130.351L61.0521 125.661L56.2533 116.554Z" stroke="white" stroke-width="1.6" stroke-linejoin="bevel"/>
<path d="M4.1615 116.554L8.95936 107.485L19.1147 102.812L29.144 107.481L33.8297 116.554L29.143 125.664L19.1147 130.351L8.96033 125.661L4.1615 116.554Z" stroke="white" stroke-width="1.6" stroke-linejoin="bevel"/>
<path d="M108.346 116.554L113.144 107.485L123.299 102.812L133.329 107.481L138.014 116.554L133.328 125.664L123.299 130.351L113.145 125.661L108.346 116.554Z" stroke="white" stroke-width="1.6" stroke-linejoin="bevel"/>
<path d="M85.7363 29.2171L78.6683 15.1085L85.7363 1L71.6278 8.06807L57.5193 0.999999L64.5873 15.1085L57.5193 29.2171L71.6278 22.149L85.7363 29.2171Z" stroke="white" stroke-width="1.6" stroke-linejoin="bevel"/>
<path d="M138.914 79.1399L131.846 65.0314L138.914 50.9229L124.806 57.9909L110.697 50.9229L117.765 65.0314L110.697 79.1399L124.806 72.0718L138.914 79.1399Z" stroke="white" stroke-width="1.6" stroke-linejoin="bevel"/>
<path d="M140 29.2171L132.932 15.1085L140 1L125.891 8.06807L111.783 0.999999L118.851 15.1085L111.783 29.2171L125.891 22.149L140 29.2171Z" stroke="white" stroke-width="1.6" stroke-linejoin="bevel"/>
<path d="M31.4727 79.1399L24.4046 65.0314L31.4727 50.9229L17.3641 57.9909L3.25561 50.9229L10.3237 65.0314L3.2556 79.1399L17.3641 72.0718L31.4727 79.1399Z" stroke="white" stroke-width="1.6" stroke-linejoin="bevel"/>
</svg>
